<svg xmlns="http://www.w3.org/2000/svg" width="1280" height="720" viewBox="0 0 1280 720">
<style>
text{font-family:'Segoe UI','Microsoft YaHei',Arial,sans-serif;fill:#17212b}
.title{font-size:34px;font-weight:700}
.subtitle{font-size:18px;fill:#4b5563}
.small{font-size:15px;fill:#4b5563}
.label{font-size:18px;font-weight:650}
.metric{font-size:26px;font-weight:700}
</style>
<rect x="0" y="0" width="1280" height="720" fill="#fbfaf6"/>
<text x="70.0" y="70.0" class="title" text-anchor="start">Metric-gap seed sweep</text>
<text x="70.0" y="102.0" class="subtitle" text-anchor="start">Seed policy explains most of the deterministic rerun gap; CUDA/device effects remain untested locally.</text>
<rect x="105" y="170" width="1060" height="380" fill="#ffffff" stroke="#d1d5db"/>
<line x1="105" y1="550.0" x2="1165" y2="550.0" stroke="#e5e7eb"/>
<text x="93.0" y="555.0" class="small" text-anchor="end">0.152</text>
<line x1="105" y1="474.0" x2="1165" y2="474.0" stroke="#e5e7eb"/>
<text x="93.0" y="479.0" class="small" text-anchor="end">0.154</text>
<line x1="105" y1="398.0" x2="1165" y2="398.0" stroke="#e5e7eb"/>
<text x="93.0" y="403.0" class="small" text-anchor="end">0.156</text>
<line x1="105" y1="322.0" x2="1165" y2="322.0" stroke="#e5e7eb"/>
<text x="93.0" y="327.0" class="small" text-anchor="end">0.159</text>
<line x1="105" y1="246.0" x2="1165" y2="246.0" stroke="#e5e7eb"/>
<text x="93.0" y="251.0" class="small" text-anchor="end">0.161</text>
<line x1="105" y1="170.0" x2="1165" y2="170.0" stroke="#e5e7eb"/>
<text x="93.0" y="175.0" class="small" text-anchor="end">0.163</text>
<rect x="132.8" y="502.0" width="76.8" height="48.0" fill="#1f7a8c"/>
<text x="171.2" y="494.0" class="small" text-anchor="middle">0.153</text>
<text x="171.2" y="578.0" class="small" text-anchor="middle">notebook</text>
<text x="171.2" y="596.0" class="small" text-anchor="middle">saved</text>
<rect x="265.3" y="446.6" width="76.8" height="103.4" fill="#1f7a8c"/>
<text x="303.8" y="438.6" class="small" text-anchor="middle">0.155</text>
<text x="303.8" y="578.0" class="small" text-anchor="middle">unseeded</text>
<rect x="397.8" y="446.6" width="76.8" height="103.4" fill="#d68c2f"/>
<text x="436.2" y="438.6" class="small" text-anchor="middle">0.155</text>
<text x="436.2" y="578.0" class="small" text-anchor="middle">seed 0</text>
<rect x="530.3" y="391.0" width="76.8" height="159.0" fill="#d68c2f"/>
<text x="568.8" y="383.0" class="small" text-anchor="middle">0.157</text>
<text x="568.8" y="578.0" class="small" text-anchor="middle">seed 100</text>
<rect x="662.8" y="319.1" width="76.8" height="230.9" fill="#d68c2f"/>
<text x="701.2" y="311.1" class="small" text-anchor="middle">0.159</text>
<text x="701.2" y="578.0" class="small" text-anchor="middle">seed 1</text>
<rect x="795.3" y="295.0" width="76.8" height="255.0" fill="#d68c2f"/>
<text x="833.8" y="287.0" class="small" text-anchor="middle">0.159</text>
<text x="833.8" y="578.0" class="small" text-anchor="middle">seed</text>
<text x="833.8" y="596.0" class="small" text-anchor="middle">42/n_jobs=1</text>
<rect x="927.8" y="226.0" width="76.8" height="324.0" fill="#d68c2f"/>
<text x="966.2" y="218.0" class="small" text-anchor="middle">0.161</text>
<text x="966.2" y="578.0" class="small" text-anchor="middle">seed 22</text>
<rect x="1060.3" y="220.6" width="76.8" height="329.4" fill="#d68c2f"/>
<text x="1098.8" y="212.6" class="small" text-anchor="middle">0.162</text>
<text x="1098.8" y="578.0" class="small" text-anchor="middle">seed 42</text>
<text x="35.0" y="370.0" class="small" text-anchor="start">fold-mean MAE (eV)</text>
<text x="70.0" y="650.0" class="small" text-anchor="start">Source: results/tables/ce3_original_metric_gap/metric_gap_runs.csv</text>
</svg>
