<svg xmlns="http://www.w3.org/2000/svg" width="1280" height="720" viewBox="0 0 1280 720">
<style>
text{font-family:'Segoe UI','Microsoft YaHei',Arial,sans-serif;fill:#17212b}
.title{font-size:34px;font-weight:700}
.subtitle{font-size:18px;fill:#4b5563}
.small{font-size:15px;fill:#4b5563}
.label{font-size:18px;font-weight:650}
.metric{font-size:26px;font-weight:700}
</style>
<rect x="0" y="0" width="1280" height="720" fill="#fbfaf6"/>
<defs><marker id="arrow" markerWidth="10" markerHeight="10" refX="7" refY="3" orient="auto"><path d="M0,0 L0,6 L8,3 z" fill="#17212b"/></marker></defs>
<text x="70.0" y="70.0" class="title" text-anchor="start">Processed-data reproduction pipeline</text>
<text x="70.0" y="102.0" class="subtitle" text-anchor="start">The rerun validates the released processed baseline, while preserving provenance and nested-feature caveats.</text>
<rect x="80" y="220" width="200" height="150" rx="8" fill="#eef7f6" stroke="#1f7a8c" stroke-width="2"/>
<text x="98.0" y="265.0" class="label" text-anchor="start">DataCite -&gt; original</text>
<text x="98.0" y="314.0" class="small" text-anchor="start">Zenodo DOI points to</text>
<text x="98.0" y="333.0" class="small" text-anchor="start">NL0119/original</text>
<path d="M280 295 L340 295" stroke="#17212b" stroke-width="3" marker-end="url(#arrow)"/>
<rect x="340" y="220" width="200" height="150" rx="8" fill="#eef7f6" stroke="#1f7a8c" stroke-width="2"/>
<text x="358.0" y="265.0" class="label" text-anchor="start">357-row RFE44</text>
<text x="358.0" y="287.0" class="label" text-anchor="start">workbook</text>
<text x="358.0" y="314.0" class="small" text-anchor="start">5d1 target; 44 released</text>
<text x="358.0" y="333.0" class="small" text-anchor="start">features</text>
<path d="M540 295 L600 295" stroke="#17212b" stroke-width="3" marker-end="url(#arrow)"/>
<rect x="600" y="220" width="200" height="150" rx="8" fill="#eef7f6" stroke="#1f7a8c" stroke-width="2"/>
<text x="618.0" y="265.0" class="label" text-anchor="start">Frozen auxiliary</text>
<text x="618.0" y="287.0" class="label" text-anchor="start">features</text>
<text x="618.0" y="314.0" class="small" text-anchor="start">Predicted CS/RP used as</text>
<text x="618.0" y="333.0" class="small" text-anchor="start">released columns</text>
<path d="M800 295 L860 295" stroke="#17212b" stroke-width="3" marker-end="url(#arrow)"/>
<rect x="860" y="220" width="200" height="150" rx="8" fill="#eef7f6" stroke="#1f7a8c" stroke-width="2"/>
<text x="878.0" y="265.0" class="label" text-anchor="start">LOGO by Composition</text>
<text x="878.0" y="314.0" class="small" text-anchor="start">Leave-one-composition-</text>
<text x="878.0" y="333.0" class="small" text-anchor="start">out split</text>
<path d="M1060 295 L1120 295" stroke="#17212b" stroke-width="3" marker-end="url(#arrow)"/>
<rect x="1120" y="220" width="200" height="150" rx="8" fill="#eef7f6" stroke="#1f7a8c" stroke-width="2"/>
<text x="1138.0" y="265.0" class="label" text-anchor="start">Metrics</text>
<text x="1138.0" y="314.0" class="small" text-anchor="start">fold-mean and global</text>
<text x="1138.0" y="333.0" class="small" text-anchor="start">held-out separated</text>
<rect x="120" y="470" width="1040" height="90" rx="8" fill="#fff7ed" stroke="#d68c2f" stroke-width="2"/>
<text x="150.0" y="510.0" class="label" text-anchor="start">Limitation</text>
<text x="270.0" y="510.0" class="small" text-anchor="start">No DOI/year/source/in-house fields; no nested regeneration of auxiliary CS/RP features; CUDA comparison skipped locally.</text>
<text x="70.0" y="650.0" class="small" text-anchor="start">Source: reproductions/ce3_original_baseline/report.md; reproductions/ce3_original_metric_gap/report.md</text>
</svg>
